<svg xmlns="http://www.w3.org/2000/svg" xmlns:xlink="http://www.w3.org/1999/xlink" width="31.075" height="33.818" viewBox="0 0 31.075 33.818">
  <defs>
    <filter id="Icon_awesome-angle-double-right" x="0" y="0" width="31.075" height="33.818" filterUnits="userSpaceOnUse">
      <feOffset dy="3" input="SourceAlpha"/>
      <feGaussianBlur stdDeviation="3" result="blur"/>
      <feFlood flood-opacity="0.161"/>
      <feComposite operator="in" in2="blur"/>
      <feComposite in="SourceGraphic"/>
    </filter>
  </defs>
  <g transform="matrix(1, 0, 0, 1, 0, 0)" filter="url(#Icon_awesome-angle-double-right)">
    <path id="Icon_awesome-angle-double-right-2" data-name="Icon awesome-angle-double-right" d="M9.256,13.415,4.134,18.538a.9.9,0,0,1-1.277,0l-.851-.851a.9.9,0,0,1,0-1.277l3.631-3.631L2.006,9.148a.9.9,0,0,1,0-1.277l.847-.859a.9.9,0,0,1,1.277,0l5.123,5.123a.9.9,0,0,1,0,1.281Zm7.232-1.281L11.366,7.012a.9.9,0,0,0-1.277,0l-.851.851a.9.9,0,0,0,0,1.277l3.631,3.631L9.238,16.4a.9.9,0,0,0,0,1.277l.851.851a.9.9,0,0,0,1.277,0l5.123-5.123a.9.9,0,0,0,0-1.273Z" transform="matrix(0.07, 1, -1, 0.07, 27.64, 3.79)" fill="#1784c3"/>
  </g>
</svg>
