<?xml version="1.0" standalone="no"?>
<!DOCTYPE svg PUBLIC "-//W3C//DTD SVG 20010904//EN"
 "http://www.w3.org/TR/2001/REC-SVG-20010904/DTD/svg10.dtd">
<svg version="1.0" xmlns="http://www.w3.org/2000/svg"
 width="66.000000pt" height="66.000000pt" viewBox="0 0 66.000000 66.000000"
 preserveAspectRatio="xMidYMid meet">

<g transform="translate(0.000000,66.000000) scale(0.100000,-0.100000)"
fill="#000000" stroke="none">
<path d="M252 586 c-34 -12 -34 -12 -10 -23 12 -6 31 -14 40 -17 11 -3 15 -11
12 -21 -4 -10 4 -27 21 -45 l27 -29 -38 -3 -39 -3 -3 -72 c-2 -41 -7 -73 -13
-73 -6 0 -9 -8 -8 -17 4 -41 -2 -52 -28 -56 -22 -3 -19 -4 11 -6 38 -1 39 -1
21 -21 -16 -18 -16 -20 -1 -26 10 -4 14 -13 11 -24 -4 -12 1 -19 17 -24 141
-37 298 85 298 232 0 65 -22 115 -75 167 -70 71 -157 93 -243 61z m116 -223
c-24 -49 -32 -63 -40 -63 -10 0 -11 54 -1 63 9 10 46 9 41 0z"/>
<path d="M96 418 c-10 -39 -7 -93 10 -141 17 -50 47 -87 37 -45 -4 13 -13 33
-20 45 -9 13 -14 48 -14 92 0 75 -3 86 -13 49z"/>
<path d="M143 434 c-24 -10 -13 -24 15 -19 25 5 25 5 5 -4 -35 -16 -27 -29 15
-28 32 2 37 5 37 27 0 21 -5 25 -30 27 -16 1 -36 0 -42 -3z"/>
</g>
</svg>
