<svg xmlns="http://www.w3.org/2000/svg" width="20.532" height="18.953" viewBox="0 0 20.532 18.953">
  <g id="Icon_ionic-ios-wallet" data-name="Icon ionic-ios-wallet" transform="translate(-3.375 -4.499)">
    <path id="Path_103" data-name="Path 103" d="M20.946,11.25H6.336a2.964,2.964,0,0,0-2.961,2.961V22.5a2.964,2.964,0,0,0,2.961,2.961H20.946A2.964,2.964,0,0,0,23.907,22.5V14.211A2.964,2.964,0,0,0,20.946,11.25Z" transform="translate(0 -2.012)" fill="#1784c3"/>
    <path id="Path_104" data-name="Path 104" d="M18.265,4.549,6.672,6.815C5.783,7.012,4.5,7.905,4.5,8.991a3.11,3.11,0,0,1,2.418-.938H21.083V7.042A2.834,2.834,0,0,0,20.4,5.186h0A2.334,2.334,0,0,0,18.265,4.549Z" transform="translate(-0.335)" fill="#1784c3"/>
  </g>
</svg>
